<?xml version="1.0" encoding="UTF-8"?>
<svg id="Layer_2" data-name="Layer 2" xmlns="http://www.w3.org/2000/svg" xmlns:xlink="http://www.w3.org/1999/xlink" viewBox="0 0 635.32 211.91">
  <defs>
    <style>
      .cls-1 {
        fill: #fff;
      }

      .cls-2 {
        fill: url(#New_Gradient_Swatch_1);
      }
    </style>
    <linearGradient id="New_Gradient_Swatch_1" data-name="New Gradient Swatch 1" x1="408.32" y1="104.71" x2="635.32" y2="104.71" gradientUnits="userSpaceOnUse">
      <stop offset="0" stop-color="#9a6f2b"/>
      <stop offset=".59" stop-color="#d3b443"/>
      <stop offset="1" stop-color="#b48c34"/>
    </linearGradient>
  </defs>
  <g id="Layer_1-2" data-name="Layer 1">
    <g>
      <path class="cls-2" d="M635.32,61.58c0-33.95-27.62-61.58-61.58-61.58-21.02,0-40.64,10.86-51.92,28.54-11.28-17.68-30.9-28.54-51.92-28.54-33.95,0-61.58,27.62-61.58,61.58s25.58,59.35,57.59,61.43c-3.48,7.85-5.25,16.19-5.25,24.84,0,33.95,27.62,61.58,61.58,61.58s61.57-27.62,61.57-61.58c0-8.67-1.77-17.04-5.27-24.9,14.95-1.15,28.85-7.67,39.39-18.53,11.22-11.56,17.4-26.77,17.4-42.84ZM522.23,203.72c-30.81,0-55.87-25.06-55.87-55.87,0-7.5,1.46-14.74,4.34-21.57,11.34,17.32,30.78,27.94,51.54,27.94s40.19-10.62,51.53-27.94c2.88,6.83,4.34,14.07,4.34,21.57,0,30.81-25.06,55.87-55.87,55.87ZM475.58,117.15c9.29-14.12,24.22-23.19,40.96-24.88-9.29,14.12-24.22,23.19-40.96,24.88ZM521.82,94.61c10.42,16.29,28.09,26.89,47.31,28.35-10.27,15.84-27.97,25.56-46.89,25.56s-36.66-9.74-46.93-25.61c19.13-1.66,36.17-12.02,46.52-28.29ZM527.05,92.2c16.92,1.49,32.48,10.78,41.87,25.02-16.92-1.49-32.48-10.78-41.87-25.02ZM512.17,61.58c0,8.67,1.77,17.04,5.27,24.9-19.13,1.47-36.24,11.63-46.75,27.73-2.88-6.83-4.34-14.07-4.34-21.56,0-29.27,22.14-53.15,50.94-55.64-3.41,7.77-5.13,16.02-5.13,24.58ZM578.1,92.64c0,7.5-1.46,14.74-4.34,21.57-10.58-16.14-28.34-26.53-47.55-27.79,3.49-7.85,5.25-16.19,5.25-24.84s-1.73-16.85-5.16-24.64c28.83,2.11,51.8,26.5,51.8,55.71ZM521.82,82.21c-2.62-6.55-3.95-13.48-3.95-20.63s1.33-14.08,3.95-20.63c2.62,6.55,3.95,13.48,3.95,20.63s-1.33,14.08-3.95,20.63ZM477.96,49.9c-11.16,11.55-17.3,26.73-17.3,42.74,0,8.58,1.73,16.85,5.16,24.64-28.83-2.11-51.8-26.5-51.8-55.71,0-30.81,25.06-55.87,55.87-55.87,18.95,0,36.66,9.74,46.93,25.62-14.76,1.29-28.47,7.82-38.87,18.58ZM578.67,117.22c3.41-7.77,5.13-16.02,5.13-24.58,0-16.16-6.24-31.44-17.58-43.02-10.57-10.8-24.46-17.25-39.38-18.36,10.28-15.84,27.97-25.56,46.89-25.56,30.81,0,55.87,25.06,55.87,55.87s-22.14,53.15-50.94,55.64Z"/>
      <g>
        <path class="cls-1" d="M0,45.38c0-14.56,9.5-25.56,24.06-25.56,5.67,0,10.46,1.64,13.94,4.31,4.24,3.21,6.7,8,7.31,13.46h-12.1c-.62-4.37-4.03-7.72-9.23-7.72-7.93,0-11.69,6.63-11.69,15.52s4.51,15.45,11.76,15.45c5.4,0,8.95-3.42,9.5-8.13h12.1c-.34,4.85-2.53,9.3-5.88,12.51-3.76,3.62-8.75,5.54-15.65,5.54-14.35,0-24.13-10.73-24.13-25.36Z"/>
        <path class="cls-1" d="M47.98,45.31c0-14.63,9.36-25.49,24.13-25.49s24.2,10.87,24.2,25.49-9.36,25.49-24.2,25.49-24.13-10.87-24.13-25.49ZM84,45.31c0-8.89-3.9-15.72-11.82-15.72s-11.89,6.83-11.89,15.72,4.03,15.65,11.89,15.65,11.82-6.77,11.82-15.65Z"/>
        <path class="cls-1" d="M101.03,20.77h12.17l14.49,24.54c.75,1.37,3.35,6.22,3.35,6.22h.14s-.14-5.88-.14-7.59v-23.17h11.82v48.87h-12.17l-14.35-24.2c-.82-1.3-3.49-6.56-3.49-6.56h-.14s.14,6.29.14,8v22.76h-11.82V20.77Z"/>
        <path class="cls-1" d="M147.58,45.38c0-14.56,9.5-25.56,24.06-25.56,5.67,0,10.46,1.64,13.94,4.31,4.24,3.21,6.7,8,7.31,13.46h-12.1c-.62-4.37-4.03-7.72-9.23-7.72-7.93,0-11.69,6.63-11.69,15.52s4.51,15.45,11.76,15.45c5.4,0,8.95-3.42,9.5-8.13h12.1c-.34,4.85-2.53,9.3-5.88,12.51-3.76,3.62-8.75,5.54-15.65,5.54-14.35,0-24.13-10.73-24.13-25.36Z"/>
        <path class="cls-1" d="M197.2,52.42v-31.65h12.1v32.06c0,4.78,2.46,8,8.41,8,5.6,0,8.27-3.42,8.27-8.2v-31.85h12.1v31.65c0,11.28-6.77,18.11-20.37,18.11s-20.5-6.7-20.5-18.11Z"/>
        <path class="cls-1" d="M244.43,20.77h23.38c9.71,0,17.09,4.99,17.09,14.08,0,5.67-2.8,9.84-8.47,11.82v.21c4.24,1.44,6.42,4.1,7.11,8.95,1.03,6.42.34,12.58,2.05,13.19v.61h-11.76c-1.3-.75-1.09-6.49-1.85-11.35-.62-4.51-2.94-6.97-8.13-6.97h-7.31v18.32h-12.1V20.77ZM265.62,42.37c4.78,0,7.24-2.26,7.24-5.95s-2.32-6.08-6.97-6.08h-9.36v12.03h9.09Z"/>
        <path class="cls-1" d="M287.98,54.26h12.17c.55,4.92,3.76,6.97,9.57,6.97,3.96,0,7.86-1.44,7.86-5.13,0-3.9-3.96-4.72-10.66-6.36-8.47-1.98-17.43-4.58-17.43-14.83s8.48-15.04,19.41-15.04,18.8,4.78,19.27,15.04h-11.82c-.48-3.76-3.35-5.88-7.86-5.88-4.24,0-7.04,1.85-7.04,4.58,0,3.42,3.76,4.24,11.07,5.88,9.09,2.12,17.29,4.92,17.29,15.38s-8.75,15.93-20.03,15.93c-12.99,0-21.53-5.74-21.8-16.54Z"/>
        <path class="cls-1" d="M334.73,52.42v-31.65h12.1v32.06c0,4.78,2.46,8,8.41,8,5.6,0,8.27-3.42,8.27-8.2v-31.85h12.1v31.65c0,11.28-6.77,18.11-20.37,18.11s-20.5-6.7-20.5-18.11Z"/>
        <path class="cls-1" d="M381.96,20.77h12.1v38.62h21.94v10.25h-34.04V20.77Z"/>
        <path class="cls-1" d="M1.98,81.48h20.85c13.53,0,22.62,9.77,22.62,24.74,0,8.61-3.01,15.52-8.48,19.68-3.83,2.87-8.75,4.44-14.9,4.44H1.98v-48.87ZM21.19,120.17c7.93,0,12.03-4.99,12.03-13.94s-4.31-14.63-11.89-14.63h-7.25v28.57h7.11Z"/>
        <path class="cls-1" d="M50.17,81.48h37.05v9.98h-24.95v8.75h21.39v9.43h-21.39v10.46h25.36v10.25h-37.46v-48.87Z"/>
        <path class="cls-1" d="M103.69,81.48h16.27l5.95,21.39c.89,3.08,2.8,11.14,2.8,11.14h.14s1.91-8.07,2.73-11.14l6.02-21.39h16.4v48.87h-11.07v-24.61c0-1.98.2-9.77.2-9.77h-.14s-1.71,7.31-2.26,9.09l-7.04,25.29h-9.98l-6.97-25.22c-.55-1.78-2.26-9.16-2.26-9.16h-.14s.21,7.86.21,9.84v24.54h-10.87v-48.87Z"/>
        <path class="cls-1" d="M174.85,81.48h12.44l17.63,48.87h-12.71l-2.87-8.82h-17.09l-2.8,8.82h-12.17l17.57-48.87ZM186.54,112.86l-3.69-11.82c-.82-2.53-1.91-6.9-1.91-6.9h-.14s-1.16,4.37-1.98,6.9l-3.76,11.82h11.48Z"/>
        <path class="cls-1" d="M214.22,91.74h-14.22v-10.25h40.67v10.25h-14.35v38.62h-12.1v-38.62Z"/>
        <path class="cls-1" d="M245.19,81.48h37.05v9.98h-24.95v8.75h21.39v9.43h-21.39v10.46h25.36v10.25h-37.46v-48.87Z"/>
        <path class="cls-1" d="M288.11,81.48h16.27l5.95,21.39c.89,3.08,2.8,11.14,2.8,11.14h.14s1.91-8.07,2.73-11.14l6.02-21.39h16.4v48.87h-11.07v-24.61c0-1.98.21-9.77.21-9.77h-.14s-1.71,7.31-2.26,9.09l-7.04,25.29h-9.98l-6.97-25.22c-.55-1.78-2.26-9.16-2.26-9.16h-.14s.21,7.86.21,9.84v24.54h-10.87v-48.87Z"/>
        <path class="cls-1" d="M359.27,81.48h12.44l17.63,48.87h-12.71l-2.87-8.82h-17.09l-2.8,8.82h-12.17l17.57-48.87ZM370.96,112.86l-3.69-11.82c-.82-2.53-1.91-6.9-1.91-6.9h-.14s-1.16,4.37-1.98,6.9l-3.76,11.82h11.48Z"/>
        <path class="cls-1" d="M398.64,91.74h-14.22v-10.25h40.67v10.25h-14.35v38.62h-12.1v-38.62Z"/>
        <path class="cls-1" d="M423.52,121.67c6.15,0,8.27-.62,10.05-6.49l5.4-17.63c2.12-6.9.34-7.31-5.81-7.31h-2.6l2.67-8.68h23.58l-2.67,8.68h-2.46c-6.15,0-8.34.48-10.39,7.31l-5.33,17.57c-1.64,5.47-.14,6.56,4.78,6.56h3.83l-2.67,8.68h-23.58l2.67-8.68h2.53Z"/>
        <path class="cls-1" d="M452.57,106.09c0-14.56,9.5-25.56,24.06-25.56,5.67,0,10.46,1.64,13.94,4.31,4.24,3.21,6.7,8,7.31,13.46h-12.1c-.62-4.37-4.03-7.72-9.23-7.72-7.93,0-11.69,6.63-11.69,15.52s4.51,15.45,11.76,15.45c5.4,0,8.95-3.42,9.5-8.13h12.1c-.34,4.85-2.53,9.3-5.88,12.51-3.76,3.62-8.75,5.54-15.65,5.54-14.35,0-24.13-10.73-24.13-25.36Z"/>
        <path class="cls-1" d="M514.98,81.48h12.44l17.63,48.87h-12.71l-2.87-8.82h-17.09l-2.8,8.82h-12.17l17.57-48.87ZM510.19,69.59h6.29c.21,1.91,1.91,3.21,4.78,3.21s4.51-1.5,4.72-3.21h6.29c-.27,5.81-4.58,9.91-10.94,9.91s-10.94-3.9-11.14-9.91ZM526.67,112.86l-3.69-11.82c-.82-2.53-1.91-6.9-1.91-6.9h-.14s-1.16,4.37-1.98,6.9l-3.76,11.82h11.48Z"/>
        <path class="cls-1" d="M13.26,191.06v-4.99c7.45-.21,7.65-.55,7.65-10.53v-27.54h-2.39c-10.32,0-11.48,3.76-12.1,12.51H.96v-18.25h52.36v18.25h-5.47c-.62-8.75-1.78-12.51-12.1-12.51h-2.39v27.54c0,9.98.2,10.32,7.66,10.53v4.99H13.26ZM23.17,211.91l-.68-2.32c5.06-.48,7.45-2.32,7.45-4.24,0-.89-.27-1.16-.75-1.16-.75,0-1.98.68-3.49.68-2.32,0-4.31-1.64-4.31-4.58s2.39-5.06,5.81-5.06c3.83,0,6.63,2.39,6.63,7.59s-4.37,8.82-10.66,9.09Z"/>
        <path class="cls-1" d="M59.4,191.06v-4.99c7.45-.21,7.65-.55,7.65-10.53v-16.4c0-11.28-.2-11.82-7.65-11.96v-4.92h27.75v4.92c-7.45.14-7.66.68-7.66,11.96v16.4c0,9.98.2,10.32,7.66,10.53v4.99h-27.75Z"/>
        <path class="cls-1" d="M105.54,191.06v-4.99c7.45-.21,7.65-.55,7.65-10.53v-27.54h-2.39c-10.32,0-11.48,3.76-12.1,12.51h-5.47v-18.25h52.36v18.25h-5.47c-.61-8.75-1.78-12.51-12.1-12.51h-2.39v27.54c0,9.98.2,10.32,7.66,10.53v4.99h-27.75ZM115.45,211.91l-.68-2.32c5.06-.48,7.45-2.32,7.45-4.24,0-.89-.27-1.16-.75-1.16-.75,0-1.98.68-3.49.68-2.32,0-4.31-1.64-4.31-4.58s2.39-5.06,5.81-5.06c3.83,0,6.63,2.39,6.63,7.59s-4.37,8.82-10.66,9.09Z"/>
        <path class="cls-1" d="M184.21,177.05c-.55-5.95-3.14-7.86-9.5-7.72h-2.94v6.08c0,7.66,1.23,9.91,10.66,9.91h1.64c8.41,0,11.96-5.74,13.12-14.76h5.67v20.5h-51.19v-4.99c7.24-.21,7.65-.41,7.65-10.53v-15.04c0-13.19-.2-13.06-7.65-13.33v-4.92h49.07v18.25h-5.67c-.89-8.34-3.49-12.51-11.82-12.51h-11.48v15.86h2.94c6.36,0,8.95-1.78,9.5-7.79h4.03v20.98h-4.03Z"/>
        <path class="cls-1" d="M208.69,191.06v-4.99c7.45-.21,7.65-.55,7.65-10.53v-16.4c0-11.28-.2-11.82-7.65-11.96v-4.92h27.75v4.92c-7.45.14-7.66.68-7.66,11.96v16.4c0,9.98.2,10.32,7.66,10.53v4.99h-27.75Z"/>
        <path class="cls-1" d="M270.13,192.43c-16.34,0-27.54-9.64-27.54-25.77s12.58-25.9,27-25.9c6.08,0,11.35,1.5,15.31,4.65l1.71-4.72h6.08v20.16h-6.77c-.75-8.75-6.42-13.94-14.28-13.94-9.84,0-16.06,7.38-16.06,19.75s5.81,19.62,16.06,19.62c8.54,0,14.28-4.44,14.28-13.87h7.38c.14,12.99-9.57,20.03-23.17,20.03Z"/>
        <path class="cls-1" d="M296.79,191.06v-4.99c5.54-.21,6.36.2,10.94-11.21l13.05-32.6h10.87l12.99,33.29c3.42,8.82,4.24,10.25,10.39,10.53v4.99h-27.34v-4.99c6.77-.41,5.95-1.64,3.49-9.23h-16.81c-2.73,7.59-2.39,8.82,4.44,9.23v4.99h-22.01ZM329.4,171.38l-6.08-18.93-6.97,18.93h13.06Z"/>
      </g>
    </g>
  </g>
</svg>