<?xml version="1.0" encoding="UTF-8"?>
<svg id="Layer_2" data-name="Layer 2" xmlns="http://www.w3.org/2000/svg" xmlns:xlink="http://www.w3.org/1999/xlink" viewBox="0 0 227 209.42">
  <defs>
    <style>
      .cls-1 {
        fill: url(#New_Gradient_Swatch_1);
      }
    </style>
    <linearGradient id="New_Gradient_Swatch_1" data-name="New Gradient Swatch 1" x1="0" y1="104.71" x2="227" y2="104.71" gradientUnits="userSpaceOnUse">
      <stop offset="0" stop-color="#9a6f2b"/>
      <stop offset=".59" stop-color="#d3b443"/>
      <stop offset="1" stop-color="#b48c34"/>
    </linearGradient>
  </defs>
  <g id="Layer_1-2" data-name="Layer 1">
    <path class="cls-1" d="M227,61.58c0-33.95-27.62-61.58-61.58-61.58-21.02,0-40.64,10.86-51.92,28.54C102.21,10.86,82.6,0,61.58,0,27.62,0,0,27.62,0,61.58s25.58,59.35,57.59,61.43c-3.48,7.85-5.25,16.19-5.25,24.84,0,33.95,27.62,61.58,61.58,61.58s61.57-27.62,61.57-61.58c0-8.67-1.77-17.04-5.27-24.9,14.95-1.15,28.85-7.67,39.39-18.53,11.22-11.56,17.4-26.77,17.4-42.84ZM113.91,203.72c-30.81,0-55.87-25.06-55.87-55.87,0-7.5,1.46-14.74,4.34-21.57,11.34,17.32,30.78,27.94,51.54,27.94s40.19-10.62,51.53-27.94c2.88,6.83,4.34,14.07,4.34,21.57,0,30.81-25.06,55.87-55.87,55.87ZM67.26,117.15c9.29-14.12,24.22-23.19,40.96-24.88-9.29,14.12-24.22,23.19-40.96,24.88ZM113.5,94.61c10.42,16.29,28.09,26.89,47.31,28.35-10.27,15.84-27.97,25.56-46.89,25.56s-36.66-9.74-46.93-25.61c19.13-1.66,36.17-12.02,46.52-28.29ZM118.73,92.2c16.92,1.49,32.48,10.78,41.87,25.02-16.92-1.49-32.48-10.78-41.87-25.02ZM103.85,61.58c0,8.67,1.77,17.04,5.27,24.9-19.13,1.47-36.24,11.63-46.75,27.73-2.88-6.83-4.34-14.07-4.34-21.56,0-29.27,22.14-53.15,50.94-55.64-3.41,7.77-5.13,16.02-5.13,24.58ZM169.79,92.64c0,7.5-1.46,14.74-4.34,21.57-10.58-16.14-28.34-26.53-47.55-27.79,3.49-7.85,5.25-16.19,5.25-24.84s-1.73-16.85-5.16-24.64c28.83,2.11,51.8,26.5,51.8,55.71ZM113.5,82.21c-2.62-6.55-3.95-13.48-3.95-20.63s1.33-14.08,3.95-20.63c2.62,6.55,3.95,13.48,3.95,20.63s-1.33,14.08-3.95,20.63ZM69.64,49.9c-11.16,11.55-17.3,26.73-17.3,42.74,0,8.58,1.73,16.85,5.16,24.64-28.83-2.11-51.8-26.5-51.8-55.71C5.7,30.77,30.77,5.7,61.58,5.7c18.95,0,36.66,9.74,46.93,25.62-14.76,1.29-28.47,7.82-38.87,18.58ZM170.35,117.22c3.41-7.77,5.13-16.02,5.13-24.58,0-16.16-6.24-31.44-17.58-43.02-10.57-10.8-24.46-17.25-39.38-18.36,10.28-15.84,27.97-25.56,46.89-25.56,30.81,0,55.87,25.06,55.87,55.87s-22.14,53.15-50.94,55.64Z"/>
  </g>
</svg>