<?xml version="1.0" encoding="UTF-8"?>
<svg id="Layer_2" data-name="Layer 2" xmlns="http://www.w3.org/2000/svg" viewBox="0 0 48.49 62.53">
  <defs>
    <style>
      .cls-1 {
        fill: #dbc274;
      }
    </style>
  </defs>
  <g id="Layer_1-2" data-name="Layer 1">
    <g>
      <path class="cls-1" d="M1.2,21.44c.87.33,1.24.83,1.13,1.52-.18,1.13.49,1.35,1.19,1.47,1.01.18,2.22,1.2,2.2,2.21-.01.84.36,1.45.76,2.1.19.32.39.64.56,1.01-.17-.02-.34-.04-.51-.05-.49-.05-.92-.09-1.32-.22-.46-.14-.95-.78-1.09-1.27-.06-.21-.06-.37.01-.46.59-.71.24-1.2-.06-1.63-.09-.13-.18-.25-.24-.38-.12-.24-.26-.47-.4-.7-.06-.09-.11-.19-.17-.28-.02-.03-.05-.06-.09-.06,0,0,0,0-.01,0-.03,0-.07.01-.09.04-.53.56-.53,1.23,0,1.83.39.43.41.89.41,1.53,0,.8.29,2.09.94,2.46,1.72.98,3.62,1.61,5.08,2.04,1.01.3,1.44.53,1.57,1.59.19,1.56.44,3.11.69,4.69.02.13.15.21.29.29.06.03.11.07.17.11.02.02.05.02.07.02.02,0,.04,0,.05-.01.04-.02.07-.06.07-.11,0-.16.03-.27.06-.37,0,.05.02.1.07.12.18.07.34.15.5.22.31.14.59.26.88.33.6.13,1.21.23,1.85.34.27.04.54.09.81.13,0,0,.01,0,.02,0,.04,0,.07-.02.09-.05.07-.09.14-.18.22-.28.57-.74,1.16-1.5,2.37-1.5.22,0,.46.03.7.08,0,0,.02,0,.03,0,.04,0,.08-.02.1-.05.03-.04.03-.1,0-.14-.12-.17-.2-.31-.28-.43-.13-.22-.22-.36-.36-.46-.42-.28-.65-.59-.68-.93-.03-.25.06-.52.25-.79-.01.13-.03.25-.03.38v.1c0,.24,0,.52.15.65.48.41,1,.79,1.49,1.16.18.13.36.26.53.4.02.02.05.02.07.02s.05,0,.08-.03l.13-.1.13-.1s.05-.08.04-.12v-.05s-.29-1.35-.29-1.35c.12.11.23.22.34.33.42.42.85.85,1.56.85.07,0,.15,0,.23-.01.05,0,.08-.04.1-.08s0-.09-.02-.12l-.77-.84.93-.21c.06-.01.11-.08.09-.14l-.06-.32c-.01-.06-.06-.1-.12-.1h-1.35l-.03-.32-.03-.38c0-.06-.06-.11-.12-.11h-.58s-.53,0-.53,0h-.71c-.25,0-.5,0-.75,0h-.22c0-.19-.05-.33-.14-.42-.13-.13-.3-.15-.44-.15-.06,0-.13,0-.19,0-.06,0-.12,0-.18,0-.03,0-.07,0-.1,0-.5-.05-1.01-.12-1.51-.19-.25-.03-.5-.07-.74-.1-.13-.02-.26-.03-.39-.04l-.18-.02s0,0-.01,0c-.06,0-.11.04-.12.1l-.02.15c0,.05.02.1.06.13l.44.24,1.02.56-.91.12c-.05,0-.09.04-.1.09l-.09.41-.04.2c-.27-.29-.42-.42-.62-.42-.18,0-.35.11-.65.31l-.07.04c-.07.05-.17.07-.33.07-.11,0-.22-.01-.32-.02h-.08c-.11-.02-.24-.05-.36-.09-.15-.04-.31-.09-.46-.09-.05,0-.11,0-.15.02-.11.03-.21.04-.3.04-.22,0-.44-.07-.48-.57-.06-.68-.1-1.36-.14-1.95l-.04-.59.33-.34.82-.84s.04-.06.03-.09c0-.03-.01-.06-.04-.09l-.07-.06,1.39-.64c.05-.02.08-.08.07-.14-.07-.35-.44-.35-.64-.35h-.08s-.08,0-.08,0c-.22,0-.38-.02-.45-.12-.06-.09-.1-.3.07-.82,0-.02.01-.03.01-.05,0-.07-.05-.12-.12-.12h0s0,0,0,0h0s-.04,0-.06.02t0,0h0s-.02.01-.03.02h0s0,0,0,0c0,0,0,0,0,.01-.11.16-.22.24-.31.24-.11,0-.24-.11-.36-.21-.14-.12-.29-.25-.48-.25-.21,0-.37.18-.47.35-.29-.17-.51-.44-.74-.72-.35-.41-.7-.84-1.3-.97,0-.06.02-.15.03-.24l.03-.22c0-.06-.03-.11-.09-.13-.1-.03-.2-.07-.31-.11-.27-.11-.58-.23-.9-.23-1.11-.02-1.75-.51-2.08-1.58l-.02-.07c-.23-.76-.5-1.62-1.64-1.62-.06,0-.12,0-.19,0-.03,0-.06,0-.09,0-.32,0-.63-.13-.79-.33-.12-.16-.16-.35-.11-.58.19-.84-.14-1.26-.64-1.6.01,0,.03,0,.04,0,.3,0,.68.02.92.2.27.21.53.31.79.31.42,0,.81-.27,1.24-.6.04-.03.06-.08.04-.13-.01-.05-.05-.08-.1-.09l-3.27-.6-1.36-.25.06-.11.34-.66s.02-.04.02-.07c0-.07-.05-.12-.12-.12h0s-.04,0-.06.02h0s0,0,0,0c0,0-.02.01-.02.02-.65.66-.9,1.18-.81,1.61.09.4.46.71,1.18.99ZM12.59,38.83c.21-.04.39-.07.56-.09l-.48.13s-.05-.02-.07-.03ZM14.26,37.56c-.25,0-.48-.09-.77-.32l.38.02,1.2.07c-.35.17-.59.24-.81.24ZM15.41,37.22c-.15,0-.31-.02-.46-.02l.55-.02s-.06.03-.09.05ZM21.13,36.12s.04.04.06.05c.02.09.04.17.05.26l-.11-.31ZM15.73,36.25s-.02-.02-.03-.03c0-.03.01-.05.02-.08v.11ZM7.21,29.83c-.03-.07-.07-.14-.1-.21.05.07.09.15.14.22-.01,0-.03,0-.04,0ZM7.51,30.53c.32.06.62.11.9.15l-.96-.12s.04-.02.07-.03ZM9.45,30.75l-1.11-.19-.57-.1c.31-.15.58-.23.81-.23.35,0,.64.17.87.52ZM9.65,30.84c-.04-.07-.08-.14-.13-.2.06.07.12.13.18.21h-.05ZM12.55,31.38h-.03s.02,0,.02,0c0,0,0,0,0,0ZM1.99,20.86s.08.05.12.08c-.06-.03-.11-.05-.17-.08.02,0,.03,0,.05,0ZM3.17,24.84v-.02s-.01,0-.01,0c0,0,0,.01.01.02ZM12.29,39.18s0,0,0,0c0,0,0,0,0,0,0,0,0,0,0,0ZM12.47,38.82c.1-.33.33-.37.62-.37.06,0,.12,0,.17,0,.06,0,.12,0,.18,0,.09,0,.17,0,.24-.01v.05s.02.03.02.03l-1.13.19c-.05,0-.09.05-.1.1ZM19.83,38.08c.05,0,.1,0,.16,0,0,.01.01.02.02.03-.07-.01-.12,0-.18-.02ZM23.44,37.43s0,0,.01,0c0,0,0,0,0,0,0,0-.01,0-.02,0ZM22.78,36.69l-.22-.19h.03c.07.06.12.13.19.19ZM16.34,34.83l.8.38h-.08c-.26-.13-.49-.26-.72-.38ZM12.87,29.25c-.03.1-.05.17-.07.26,0-.06,0-.13.02-.2.02-.02.04-.03.06-.06ZM5.03,20.87c.05-.05.1-.1.15-.15.01,0,.03,0,.04,0-.07.05-.13.1-.2.14ZM1.45,20.03l-.96-.16v-.02c.33.06.64.12.96.17ZM.91,18.92c-.07.14-.13.25-.18.36l.08-.24s.06-.07.1-.11Z"/>
      <path class="cls-1" d="M40.85,54.74h0s-.01,0-.02,0t0,0s-.03,0-.04.01c-.82.44-1.65.91-2.45,1.36-1.82,1.03-3.7,2.09-5.65,2.93-3.26,1.41-6.03,2.18-8.05,2.23.11-.02.22-.04.32-.05.93-.16,1.8-.3,2.64-.56,2.05-.62,4.05-1.26,5.96-2.12,1.86-.84,3.56-1.93,4.98-2.88.56-.37.77-1.16.57-2.11,0-.05-.04-.08-.09-.09-.01,0-.02,0-.03,0-.03,0-.07.01-.09.04l-.49.56-.23.26-.12-.07c.04-.11.09-.22.13-.34.13-.34.27-.7.35-1.07.05-.23-.01-.46-.07-.69-.02-.07-.04-.15-.05-.22,0-.02.02-.04.02-.06,0,0,0-.01,0-.02,0,0,0,0,0-.01l-.03-.06-.06-.52.34-.31.54-.48c.81.87,1.65,1.31,2.49,1.31,1.34,0,2.65-1.1,3.9-3.26.02-.02.02-.05.02-.07,0-.07-.05-.12-.12-.12h0s0,0-.01,0c-.01,0-.03,0-.04,0-.2.08-.36.23-.52.37-.18.17-.36.32-.55.32-.12,0-.25-.06-.4-.18-.73-.6-1.39-1.13-2.12-1.56-.27-.16-.77-.27-1.06-.27-.18,0-.29.04-.33.12-.22.39-.34.92-.36,1.61-.01.36.06.72.13,1.07.02.1.04.19.05.29-.19-.01-.34-.07-.44-.18-.15-.15-.22-.41-.21-.75.01-.4.09-.82.17-1.22.03-.17.07-.35.1-.52,0-.01,0-.02,0-.04,0-.07-.05-.12-.12-.12h0s0,0,0,0h0s-.04,0-.06.02c0,0,0,0,0,0h0s-.02.01-.02.02h0s0,0,0,0c0,0,0,0,0,0,0,0,0,0,0,0-.33.4-.52.85-.68,1.28-.17.44-.33.88-.49,1.32l-.19.53-.18.07c-.25-.92-.73-1.34-1.52-1.34-.34,0-.71.08-1.06.16-.15.03-.31.07-.46.09-.06.01-.11.07-.1.13,0,.06.06.11.12.11h1.92c.44.87.77,1.53,1.1,2.18l-.44.36-.25.21s-.06.1-.03.15l.33.61-.15.07c-.45.22-.81.4-1.17.6-.05.03-.07.11-.06.17.1.39.19.39.23.39.01,0,.02,0,.03,0,.31-.09.61-.19.9-.3l.03.51.03.48s.03.09.07.11c.02,0,.03.01.05.01.03,0,.06,0,.08-.03l.4-.33.05.05s-.08.09-.12.14c-.12.15-.25.3-.36.31-.65.09-1.3.12-1.99.16-.15,0-.31.02-.46.02.04-.03.08-.06.13-.09.22-.16.47-.34.46-.61,0-.19-.12-.37-.38-.56l.12-.18.4-.58c.04-.05.03-.13-.03-.17l-.1-.07-.09-.07s-.05-.03-.07-.03c0,0-.01,0-.02,0-.03,0-.06.02-.08.05-.12.16-.26.31-.41.47-.33.36-.67.73-.73,1.15-.11.83-.62,1-1.21,1.2-.03,0-.05.02-.08.03.08-1.13.21-2.16,1.76-2.23.04,0,.08-.02.1-.06.02-.03.02-.08,0-.11l-.05-.12-.05-.12s-.06-.07-.11-.07h-1.39s0,0,0,0c-.11-.4-.33-.59-.71-.59-.09,0-.18,0-.28.02-.09,0-.19.02-.28.02-.16,0-.29-.03-.4-.1-.02-.01-.04-.02-.06-.02s-.04,0-.06.02c-.04.02-.06.07-.06.11v.02s.08.97.08.97c0,.04.02.07.05.09.02.02.05.02.07.02,0,0,.02,0,.03,0l.71-.16.67-.15c-.04.14-.08.29-.11.44-.13.49-.26,1-.44,1.48-.09.22-.26.42-.47.66-.11.13-.23.26-.35.41-.02.03-.03.07-.02.1,0,.04.03.07.07.08l.5.23c-.15.16-.3.33-.44.49-.4.46-.82.94-1.31,1.26-.7.46-1.58.81-2.54,1.01-.04,0-.08.01-.12.01-.25,0-.56-.14-.85-.28-.11-.05-.22-.09-.33-.14.01-.01.02-.02.03-.03.2-.2.4-.41.59-.41.15,0,.31.13.49.39.06.09.2.15.31.15.02,0,.04,0,.06,0,.17-.04.33-.08.5-.11.46-.1.93-.2,1.35-.41.4-.2.73-.5,1.08-.81.15-.13.3-.27.46-.4.03-.02.05-.06.04-.1s-.02-.07-.05-.1l-.22-.15-.35-.24s-.04-.02-.07-.02c-.01,0-.03,0-.04,0l-.36.13c-.23.08-.42.15-.61.22-.12.04-.25.08-.38.11-.31.08-.62.16-.83.37-.17.17-.32.25-.48.25-.21,0-.41-.14-.61-.27-.09-.06-.19-.13-.28-.17-.1-.05-.15-.31-.21-.59-.04-.18-.08-.37-.14-.58-.01-.04-.04-.07-.08-.08l-.39-.14-.53-.18s-.03,0-.04,0c-.03,0-.06.01-.08.03-.03.03-.05.07-.04.12l.09.41.06.25h-.77c-.05,0-.1.03-.12.09-.02.05,0,.11.05.14l1.25.88-.02.14-.29-.02-1.36-.07s0,0,0,0c-.05,0-.09.03-.11.07-.02.05,0,.1.03.14.15.14.34.22.53.3.36.15.65.27.65.74,0,.04,0,.06.02.08-.14.05-.28.1-.42.12-.31.04-.63.05-.98.07-.02,0-.05,0-.07,0l.28-.2s.06-.07.05-.11c0-.04-.03-.08-.07-.1l-.96-.41-.45-.19.88-.11c.05,0,.1-.05.11-.1,0-.05-.02-.11-.06-.13l-.36-.19-.61-.31.06-.14,1.1.14s.01,0,.02,0c.06,0,.11-.04.12-.1.01-.06-.02-.12-.08-.14l-1.85-.55s-.02,0-.03,0c-.03,0-.06.01-.08.03-.03.03-.05.07-.04.11l.08.42.05.26-.91-.56s-.04-.02-.06-.02c-.04,0-.08.02-.1.06l-.56.87-.59.91-.41.03-.26.02.04-.29.07-.5c0-.06-.03-.12-.09-.14l-.2-.05-.2-.05s-.02,0-.03,0c-.05,0-.1.03-.12.09l-.31.99-.08.27-1.38.74s-.06.05-.06.09c0,.04,0,.08.03.1h0s-.65.26-.65.26l-1.05.42c-.06.02-.09.09-.07.15l.06.2.05.19s.02.05.04.06c-.23,0-.41.07-.56.19-.03.03-.05.07-.04.12,0,.04.04.08.08.09l1.28.46s.03,0,.04,0c.03,0,.07-.01.09-.04.05,0,.1-.02.15-.03.18-.03.34-.07.51-.07,1.82-.06,3.64-.12,5.45-.17h.22c.08,0,.15,0,.23,0,.21,0,.42,0,.62.01.21,0,.42.01.63.01.49,0,.86-.04,1.2-.13,1.29-.35,2.58-.78,3.83-1.19.83-.27,1.7-.56,2.55-.82.4-.12.83-.16,1.21-.19.12-.01.24-.02.34-.03l.33.87.07.17s.06.08.11.08c.01,0,.02,0,.04,0l.14-.04.12-.04c.06-.02.09-.07.09-.13,0-.05,0-.1,0-.16,0-.14,0-.29-.08-.4-.2-.31-.28-.58-.22-.8.06-.24.28-.46.67-.67,1.16-.63,2.69-1.48,4.21-2.42.47-.29.88-.64,1.28-.99.16-.14.32-.28.48-.4.03-.02.05-.06.05-.1,0-.07-.05-.12-.12-.12ZM17.62,61.42c-.09,0-.16.01-.25.02l.29-.06s-.03.02-.04.04ZM17.43,61.56c-.16.14-.34.2-.59.2-.15,0-.31-.02-.47-.05-.09-.01-.18-.03-.27-.04l1.33-.12ZM17.61,60.36s.02,0,.05.02h-.02s-.01,0-.03-.02ZM22.81,57.84l.08.19-.05-.03c-.01-.05-.02-.11-.03-.16ZM33.27,56.6l.3.03,1.18.11.09.3c-.13.3-.55.34-.73.34-.41,0-.89-.16-1.29-.41l.44-.37ZM42.28,50.32c-1.45-.85-1.76-1.35-1.46-2.46,1.07.27,1.73,1.06,2.43,1.89.1.12.21.25.31.37-.35.48-1.18.85-1.94.85-.35,0-.64-.08-.85-.23-.06-.05-.1-.2-.13-.33,0,0,0-.02,0-.02l1.57.15s0,0,.01,0c.05,0,.1-.03.12-.08.02-.05,0-.11-.05-.14ZM42.14,50.38s.05.03.08.05c-.12-.01-.24-.02-.36-.03h.28ZM39.17,50.34s0,0,0,0h0s0,0,0,0ZM37.89,53.17h0s0,0,0-.01h0ZM38.38,54.85h0s0,0,0,0c0,0,0,0,0,0ZM35.1,55.69s.02-.02.03-.03c.07,0,.13,0,.2-.01l-.23.04ZM32.53,56.9s-.06-.03-.09-.04l.1.03h0s0,0,0,.01ZM26.31,57.05s0-.04-.01-.07l.03.06h-.01ZM24.25,59.78s.09,0,.14,0l-.2.06.06-.05ZM39.01,53.7s-.03-.07-.04-.1c0,0,.01-.02.02-.03,0,.04,0,.08.02.13ZM45.49,48.45c-.23.39-.47.76-.72,1.11.21-.32.43-.67.63-1.06.03-.02.05-.04.08-.05ZM39.78,47.4s-.02.08-.02.13c0-.02,0-.05-.01-.07.01-.02.02-.04.03-.05ZM38.17,50.64l-.04.03s0,0,0,0c.01,0,.03-.01.04-.02ZM35.26,49.52s-.03.02-.04.03h-.09s.09-.02.13-.03ZM36.59,53.9s-.06.04-.09.06c0,0,0-.01,0-.01.03-.02.06-.03.09-.05ZM37.5,53.99s.07-.03.11-.05v.02s-.07.02-.11.04ZM37.71,54.67l.05.38s-.02.02-.03.03c0-.15-.02-.28-.02-.41ZM34.68,53.75c.11-.02.21-.05.34-.06,0,0,0,0,0,.01-.13,0-.23.03-.34.05ZM31.83,52.81s-.02,0-.04,0c0,0,0,0,0-.01.01,0,.03,0,.04.02ZM32,56.65s0,0,0,.01c0,0,0,0,0,0,0,0,0,0,.01-.01ZM31.64,57.64s.01-.01.02-.02h0s-.01.02-.02.02ZM26.32,56.35l-.17-.03s0-.02,0-.03c.06.02.12.04.17.06ZM25.8,57.11l-.34.04s-.04-.03-.06-.04h.4ZM25.65,58.3h-.68s-.04-.02-.06-.04c.25.01.49.03.74.04ZM24.59,59.48l.16-.14s.02,0,.03.01c-.07.05-.13.09-.19.13ZM23.81,58.94l-.87-.31h.11c.26.1.51.2.76.31ZM24.03,58.44l.19-.06s.04.02.06.03c-.08.01-.17.02-.25.03ZM23.94,57.6h.36c.07.03.15.05.22.08-.2-.03-.39-.05-.58-.08ZM22.69,57.14h0s0,0,0,0c0,0,0,0,.01,0ZM19.85,59.26l-.14.02h0s.1-.02.14-.02ZM15.46,61.91s-.04.03-.06.05c0,0-.02,0-.03-.01.03-.02.06-.03.08-.04ZM40.71,54.97s.03-.04.04-.06c.03-.02.06-.04.09-.05-.04.03-.09.08-.13.11Z"/>
      <path class="cls-1" d="M34.4,50.42c0-.06-.05-.11-.11-.11-.63-.05-1.28-.07-1.92-.07-6.32,0-11.94,2.42-16.13,4.52-.05.02-.08.08-.06.13s.06.09.11.1c.1,0,.19.01.29.01.32,0,.64-.04.95-.12,1.26-.31,2.41-.62,3.52-.92,1.65-.46,3.3-.92,4.95-1.38l1.92-.54.06.13-1.07.6c-.06-.05-.12-.07-.17-.07-.09,0-.16.07-.17.16-.02.13-.03.26-.05.48l-.03.38s.02.09.06.12c.02.01.04.02.06.02.03,0,.05,0,.07-.03,2.13-1.63,4.55-2.67,7.61-3.29.06-.01.1-.07.1-.13ZM18.75,53.7c-.82.39-1.61.78-2.34,1.17-.04,0-.07,0-.11,0,.81-.41,1.63-.79,2.45-1.16ZM26.62,53.6l.02.12s-.02.01-.03.02c0-.05,0-.09.01-.14ZM33.29,50.65c.27-.07.52-.16.8-.23.06,0,.12,0,.19,0-.33.07-.66.14-.99.22Z"/>
      <path class="cls-1" d="M35.08,19.33s-.02,0-.03,0c-.04.01-.08.05-.09.1l-.13.76s0,.09.04.12c.16.13.32.25.47.37.34.25.63.47.79.75,0,.07-.19.34-.33.54-.11.15-.24.33-.34.5-.02.03-.02.06-.02.09.08.39.29.59.64.59.22,0,.46-.07.72-.15.06-.02.11-.03.17-.05l.02.03c.54.82,1.09,1.68,2.08,1.68.35,0,.72-.11,1.13-.32.04-.02.06-.06.06-.1l.03-.47.02-.37s0-.02,0-.03c0-.07-.05-.12-.12-.12h0s0,0,0,0h0s-.02,0-.02,0l-.96.25-.74.19-.2-.32s.07-.04.11-.06c.16-.09.31-.18.46-.21.03,0,.05,0,.08,0,.08,0,.16.02.25.03.1.02.2.04.3.04.04,0,.08,0,.12,0,.15-.03.3-.04.46-.06.5-.06,1.01-.12,1.33-.41.94-.87.9-2.72.24-3.66-.02-.03-.06-.05-.1-.05,0,0-.01,0-.02,0-.05,0-.08.04-.1.08l-.37,1.14-.72-.87s-.06-.04-.09-.04h-.62c-.05,0-.1.03-.11.08l-.38,1.01-.21.56s0,.08.01.11c.02.03.06.05.1.05h.81c.06,0,.11-.04.12-.1l.12-.74.58.16.23.06c-.12.12-.23.23-.34.35-.43.43-.86.88-1.34,1.26-.02.01-.05.02-.09.02-.11,0-.27-.04-.43-.09-.13-.03-.26-.07-.38-.09,0,0-.01,0-.02,0-.05,0-.1.03-.11.08l-.21.56-.02.05c-1.48-1.17-.85-2.75.84-5.2.05.04.09.08.13.12.19.16.39.34.6.47.11.07.26.1.45.1.06,0,.12,0,.18,0,.13-.01.2-.23.23-.36,0-.04.03-.13-.05-.18-.15-.09-.35-.21-.56-.24-.42-.06-.7-.18-.84-.4-.14-.2-.15-.49-.05-.87.03-.12.05-.23.08-.35l.03-.15c.01-.05-.01-.1-.06-.13l-.13-.07-.12-.07s-.04-.02-.06-.02c-.04,0-.08.02-.1.05l-1.21,1.72s-.02.04-.02.06c-.02.15-.01.31-.01.46,0,.28,0,.59-.11.68-.68.57-.96,1.19-.91,2,0,.04-.04.11-.09.2,0,.02-.02.04-.03.06l-.97-1.1s-.06-.04-.09-.04ZM35.4,19.81l-.32-.31s0-.03,0-.04c.11.13.21.24.31.36ZM39.97,20.15h0s0,.02,0,.03v-.03ZM38.13,23.37s0,0,0,0c0,0,.01.02.02.03l-.02-.02ZM38.03,22.75s0,0-.01-.01c.01-.03.02-.06.03-.09l-.02.1ZM38.71,17.27h0c-.06.08-.1.16-.16.24.05-.08.1-.16.15-.24ZM36.21,20.65h-.01s0-.02,0-.02c0,0,0,.01,0,.02ZM40.21,23.35s0,.05,0,.08v-.08s0,0,0,0ZM41.78,19.59c-.07-.17-.16-.33-.27-.46,0-.01.01-.03.01-.05.1.15.18.32.25.51ZM39.09,20.8l-.04.16h-.02c.02-.05.04-.11.06-.16ZM40.6,20.26l.4.07v.03s-.01,0-.01,0c-.13-.04-.26-.07-.39-.11Z"/>
      <path class="cls-1" d="M34.54,19.57h0s-.04,0-.06.01c-.2.1-.4.2-.58.3-.46.23-.89.45-1.3.68-.18.1-.41.3-.5.53-.21.56-.5.84-.85.84-.21,0-.46-.1-.73-.3-.02-.02-.05-.02-.07-.02-.01,0-.02,0-.03,0-.04,0-.06.03-.08.07-.05.11-.1.23-.15.35-.05.12-.11.29-.15.35-.03,0-.07,0-.11,0-.36,0-.71.1-1.05.2-.34.1-.66.19-1,.19-.27,0-.52-.06-.76-.19-.24-.13-.43-.19-.61-.19-.64,0-.74.83-.77,1.1,0,.04.01.09.05.11.02.02.05.02.07.02.02,0,.04,0,.05-.01l1.03-.49v.12s.04.08.08.1c.14.07.27.14.4.22.32.18.64.37,1,.43.07.01.14.02.21.02.27,0,.55-.07.84-.14.08-.02.16-.04.24-.06-.25.4-.53.46-.76.46-.26,0-.56-.09-.88-.19-.12-.04-.25-.08-.37-.11-.01,0-.02,0-.03,0-.04,0-.08.02-.1.05-.03.04-.03.1,0,.14l.93,1.23c-.7,1.97-.4,6.72.74,7.63.02.02.05.03.08.03.02,0,.05,0,.07-.02.04-.03.06-.08.05-.13l-.06-.21c-.04-.15-.08-.28-.11-.4-.53-2-.99-4.13-.25-6.27.15-.42.48-.78.84-1.17.13-.14.27-.28.39-.43l.18.18c.29.29.58.58.87.87.04.04.07.09.11.13l.05.07s.05.04.08.05c0,0,0,0,.01,0,.03,0,.05,0,.08-.03l.05-.04.05-.04s.05-.08.04-.13l-.12-.45-.06-.22h.01s.03.01.04.01c.04,0,.09-.02.11-.07l.59-1.13s.02-.04.02-.07c0-.07-.05-.12-.12-.12h0s0,0,0,0c-.03,0-.06.01-.08.03l-.57.49-.28.24-.15-.26-.19-.32c1.49-.48,3.34-1.62,3.54-2.41,0-.01,0-.03,0-.04,0-.07-.05-.12-.12-.12h0s0,0,0,0h0s-.05,0-.07.02c-.1.07-.2.14-.29.21-.19.14-.35.27-.53.32-.03.01-.08.02-.13.02-.19,0-.37-.07-.41-.13-.12-.16-.11-.21-.11-.21.02-.03.15-.05.23-.06.07-.01.14-.02.21-.04.58-.17,1.26-.48,1.38-1.44,0-.01,0-.02,0-.03,0-.07-.05-.12-.12-.12ZM29.87,23.62s-.02.03-.02.04c-.02,0-.04,0-.06.01.03-.02.06-.03.09-.06ZM30.17,24.29h0s0,.01-.01.02c0,0,0-.01,0-.02ZM31.39,24.69h.04c.01.05.02.09.03.13l-.07-.13ZM31.33,24.36h0s.04-.04.05-.06l-.05.06ZM30.79,23.61s.01,0,.01,0c.01.02.03.05.04.07l-.05-.06ZM34.5,19.71s.03-.01.04-.02c-.02.18-.07.33-.13.47.04-.13.08-.28.09-.44ZM25.88,23.33c0,.05,0,.1,0,.16,0,0-.02,0-.03.01,0-.06.02-.11.03-.17ZM26.83,23.04l.15-.1v.02s-.1.05-.15.07ZM27.71,24.12s-.03,0-.04,0c0,0-.01-.02-.02-.03.02,0,.04.01.06.02ZM32.23,23.57c-.11.21-.2.38-.28.54l.19-.46s.06-.05.09-.08ZM34.39,21.17c-.03.14-.13.29-.27.45.1-.14.17-.27.2-.4.02-.02.04-.03.07-.05Z"/>
      <path class="cls-1" d="M30.01,18.6c-.32,0-.63-.04-.93-.12-.01,0-.02,0-.03,0h0c-.09,0-.11.06-.14.13l-.03.08s0,.11.04.14l.18.15.1.08c-.17.12-.33.24-.5.36-.45.32-.89.64-1.33.96-.62.43-1.25.65-1.89.65-1.07,0-2.05-.63-2.77-1.78l.37-.12s.08-.05.08-.1-.02-.09-.06-.12c-.86-.52-1.32-.72-1.7-.72-.45,0-.77.28-1.25.7-.22.2-.48.42-.81.67-.04.03-.06.09-.04.14.02.05.06.08.12.08h2.79l-.19.2-.26.27s-.04.09-.02.14c.02.04.06.07.11.07,0,0,0,0,.01,0l.66-.07h.04s0,.03,0,.03v.03s-1.92.53-1.92.53l-2.17.6s-.08.05-.09.09c0,.04,0,.09.04.12.04.03.08.08.13.12.12.12.23.24.37.24,0,0,.03,0,.03,0l.26-.04c.61-.09,1.24-.18,1.81-.4.14-.05.27-.11.41-.17.53-.22,1.02-.43,1.54-.43.39,0,.76.12,1.13.38.43.3.89.45,1.37.45.55,0,1.11-.19,1.69-.57.14-.09.3-.17.45-.24.04-.02.08-.04.12-.06l.5.72s.06.05.1.05c.02,0,.05,0,.07-.02l.14-.09s.07-.09.05-.15l-.44-1.1c.9-.51,1.22-.69,1.45-.69.11,0,.21.04.37.09.01,0,.03,0,.04,0,.02,0,.04,0,.05-.01l1.21-.59,2.44-1.19s.08-.06.08-.11c0-.07-.05-.12-.12-.12h0s0,0,0,0h0s0,0-.01,0c-.55.07-1.09.22-1.61.36-.7.2-1.37.38-2.07.38ZM29.36,19.02h-.01s-.04-.02-.07-.05l.08.05ZM22.81,19.57c-.09-.11-.18-.21-.26-.33h.02c.07.12.16.21.24.33ZM22.92,19.05l.1-.06s.02.01.03.02c-.05.02-.08.03-.13.04ZM19.65,19.48c-.06.06-.11.11-.17.18h-.06c.09-.07.14-.12.22-.18ZM21.22,19.66l1.23-.04-.03.04h-1.2ZM22.12,20.06l-.2.27s-.04,0-.06,0c.08-.09.16-.17.26-.28ZM20.05,21.28l-1.49.45s-.02-.02-.03-.03c.53-.15,1.02-.28,1.52-.42Z"/>
      <path class="cls-1" d="M22.08,55.06c.96-.1,1.96-.21,2.82-.85.3-.22.59-.47.87-.71.12-.11.25-.22.38-.32.03-.02.05-.06.05-.1,0-.07-.05-.12-.12-.12h0s0,0,0,0c0,0-.01,0-.02,0-1.56.26-3.05.72-4.5,1.16h-.03c-.18.07-.36.12-.54.18-.4.13-.82.27-1.24.35-1.01.21-2.03.4-3.04.6-1.27.25-2.58.5-3.86.77-.2.04-.34.21-.5.42-.08.09-.16.2-.25.29-.04.04-.05.1-.02.14.02.04.06.06.11.06,0,0,.02,0,.02,0l.87-.18.14-.03-.55.61-.45.49s-.04.1-.02.14c.02.04.06.06.11.06,0,0,.02,0,.02,0,.33-.06.67-.1,1-.14,1.12-.13,2.18-.25,3.05-1.3.03-.04.04-.09.02-.13s-.06-.07-.11-.07c-.07,0-.11,0-.17,0,.25-.07.5-.13.75-.2.11.28.34.44.66.44.09,0,.19-.01.29-.04.57-.14,1.14-.32,1.74-.5.26-.08.53-.16.82-.25.06-.02.09-.07.09-.13s-.05-.1-.11-.11l-.38-.02c.17-.12.33-.19.47-.23.54-.17,1.12-.23,1.68-.29ZM16.86,56.07h0s0,0,0,0h0ZM19.73,55.7c.06,0,.12,0,.2.01l-.24.02s.03-.02.04-.04ZM26.08,53.08c-.06.05-.11.09-.16.14l.1-.13s.04,0,.07-.01ZM15.79,56.98s.09-.08.14-.12c-.05.04-.09.08-.14.12ZM15.96,56.82c.09-.09.17-.19.25-.3h.05c-.1.12-.2.21-.3.3ZM19.93,55.85l.27-.12s.07,0,.11,0c-.14.04-.25.08-.38.12Z"/>
      <path class="cls-1" d="M36.23,27.58c.51-.81.36-1.94-.35-2.63-.02-.02-.05-.03-.09-.03,0,0,0,0-.01,0-.04,0-.07.03-.09.06-.07.11-.13.24-.19.36-.12.26-.25.52-.41.58-.09.03-.2.05-.33.05-.18,0-.38-.03-.57-.07-.15-.02-.29-.05-.43-.06,0,0,0,0,0,0-.04,0-.08.02-.1.05-.02.04-.03.08,0,.12l.2.38s-.07,0-.11.01c-.2.02-.38.04-.53.15-.37.25-.71.54-1.05.81-.11.09-.22.18-.32.26l-.04-.04-.07-.07v-1.13s-.01-.07-.04-.09c-.02-.02-.05-.03-.08-.03,0,0,0,0-.01,0l-1.12.13c-.05,0-.09.05-.11.1-.19.94-.24,1.67.1,2.15.33.47,1.01.67,1.94.81l.41,1.08s.06.08.11.08c.01,0,.02,0,.04,0l.17-.05.17-.05s.06-.03.07-.07c.01-.03.01-.07,0-.1-.03-.07-.05-.14-.08-.2-.06-.17-.12-.34-.23-.48-.32-.39-.39-.62.02-1.08.28-.31.41-.73.54-1.14.03-.1.06-.19.09-.28l.11.12.48.51s.06.04.09.04c.02,0,.03,0,.05-.01.05-.02.08-.07.07-.12l-.04-.37v-.04s.84.25.84.25l-.11.06-.74.42s-.07.07-.06.12c0,.05.04.09.09.1l.53.13.49.12s0,0,0,0c0,0,0,0,0,0,.02.02.04.05.06.07.13.29.15.51.07.69-.14.31-.57.47-1.11.64-.04.01-.06.04-.08.07s-.01.07,0,.11c.19.32.4.48.64.48.2,0,.38-.11.55-.22.14-.09.27-.18.39-.18,0,0,0,0,.01,0,.03,0,.07,0,.09-.03.03-.02.05-.05.06-.08,0-.09.03-.19.04-.28.04-.23.08-.48.02-.7-.06-.21-.22-.37-.38-.53-.03-.03-.07-.07-.1-.1,0-.01-.01-.02-.02-.04l.11-.2c.11-.21.23-.42.36-.62ZM34.31,27.23l-.03-.06h.02s0,.04,0,.06ZM33.6,26.98l.02.02s-.01.04-.02.06c0-.03,0-.05,0-.08ZM33.99,26.43s-.02-.04-.03-.06l.05.05s-.01,0-.02,0ZM35.68,28.55s0-.02-.01-.03c0,0,0,0,0,0,0,0,0,0,0,0,.01.01.03.03.04.04h-.03ZM35.98,25.28c-.06-.08-.12-.16-.19-.23,0,0,0-.01.01-.02.08.07.12.17.18.25ZM33.8,25.97s-.03,0-.04,0c0,0,0-.01,0-.02.02,0,.04,0,.05,0ZM31.59,26.48v-.08s0,0,0,0v.08ZM34.06,27.38l.3.26s0,.04,0,.07c-.12-.13-.21-.22-.31-.33ZM35.04,27.34l.53.11-.05.03c-.16-.05-.32-.09-.48-.14ZM34.94,27.88l-.39.26s-.03,0-.05-.01c.17-.1.31-.18.44-.25ZM34.62,30s-.04.02-.06.03c0,0,0,0,0,0,.02,0,.05-.02.07-.02Z"/>
      <path class="cls-1" d="M23.64,11.3c-.06.04-.12.09-.18.15-.14.12-.3.27-.45.29-.13.02-.25.03-.37.03-1.06,0-1.88-.67-2.67-1.31-.2-.16-.42-.31-.63-.45-.1-.06-.19-.13-.29-.19-.02-.01-.04-.02-.07-.02,0,0-.01,0-.02,0-.03,0-.06.02-.08.05l-.12.18-.12.18s-.02.06-.02.09c0,.03.03.06.05.08.26.17.52.35.78.52.57.39,1.16.8,1.79,1.11.51.26,1.08.4,1.63.54,1.01.26,1.96.5,2.64,1.39.09.12.27.17.42.2l.09.02c.22.06.43.13.65.19.55.17,1.12.34,1.7.42.24.04.51.05.83.05.22,0,.44,0,.66-.02.21,0,.43-.02.64-.02.04,0,.07-.02.1-.05.02-.03.03-.07.02-.1l-.12-.51-.37-1.62c-.01-.06-.06-.09-.12-.09,0,0-.02,0-.03,0l-.11.02-.09.02c-.06.01-.1.06-.1.12v.92h-.92c-.06,0-.11.04-.12.1v.03s-.4-.44-.4-.44l-.58-.64s-.06-.04-.09-.04c0,0-.02,0-.02,0-.04,0-.08.04-.09.08l-.03.08-1.36-.6s-.03-.01-.05-.01c-.04,0-.07.02-.1.05-.03.04-.03.11,0,.15l.37.45.57.7-.05.05-.05.05-1.47-1.09-1.53-1.14s-.05-.02-.07-.02-.05,0-.07.02ZM27.53,12.81h0s0,0,0-.01h0ZM28.77,13.88l-.03-.03s0,0,0-.01l.03.04ZM30.49,14.69s0,0,.01,0c0,0,0,0,0,0,0,0,0,0-.01,0ZM27.97,13.08l-.4-.39s0-.02.01-.03c.13.14.26.28.38.42ZM26.71,12.51l-.62-.22s-.04-.05-.06-.08c.24.11.47.21.68.3Z"/>
      <path class="cls-1" d="M38.04,6.72l.35.3s.05.03.08.03c0,0,.01,0,.02,0,.03,0,.07-.03.08-.05l.77-1.2c.2,2.29.3,2.92,1.05,2.92.14,0,.29-.02.49-.05.06,0,.11-.07.1-.13,0-.05,0-.09,0-.14,0-.11-.01-.22-.03-.33-.19-1.13.03-1.55,1.09-2.04.37-.17.62-.45.73-.8.12-.4.03-.85-.24-1.27-.02-.03-.06-.06-.1-.06,0,0,0,0-.01,0-.05,0-.08.03-.1.08-.04.11-.08.23-.12.37-.09.3-.18.6-.37.79-.37.37-.81.69-1.28,1.02-.13.09-.27.19-.4.29v-.02s.24-1.29.24-1.29c.13.08.26.12.39.12.33,0,.61-.25.84-.49.55-.57.29-1.09,0-1.69-.07-.14-.14-.29-.21-.45-.02-.04-.05-.06-.09-.07,0,0-.01,0-.02,0-.03,0-.07.01-.09.04l-1.68,1.82-1.34,1.45-.34-.26-.17-.13,1.5-1.39s.04-.06.04-.09c0-.03-.01-.07-.04-.09l-.04-.04-.05-.04s-.05-.03-.08-.03c-.02,0-.05,0-.07.02l-2.23,1.58s-.05.06-.05.09c0,.04.01.07.04.1l1.37,1.15ZM40.02,6.72v-.06s.08-.05.11-.07c-.04.05-.08.08-.11.14ZM41.06,3.56l.18.03c.01.06.03.11.04.17.05.17.09.33.06.47-.08.39-.32.54-.8.55,0-.04.02-.1.04-.18l.48-1.03ZM40.29,4.97c-.01.05-.02.11-.03.16v-.18s.02.01.03.02ZM37.52,5.51s.03.02.04.03l-.05-.02h0ZM39,6.1l.38-.68s0,.05,0,.08c-.13.2-.25.39-.39.6ZM42.43,4.01s.03.08.05.12c-.02-.03-.04-.06-.06-.09,0-.01,0-.02.01-.04ZM41.3,2.69s-.02-.02-.02-.03c0,0,0,0,0,0,0,.01.01.03.02.04ZM36.9,5.37l-.14.11s0,0,0,0c.05-.04.09-.07.15-.1Z"/>
      <path class="cls-1" d="M17.55,59.61c.09-.09.19-.18.29-.25.05-.04.06-.1.04-.15l-.14-.29s-.06-.07-.11-.07c-.1,0-.21,0-.32-.02-.11-.01-.23-.02-.34-.02-.16,0-.28.02-.4.06-1.28.48-2.68.72-4.3.72-.48,0-.99-.02-1.54-.06-.15-.01-.3-.02-.45-.02-.53,0-1.08.06-1.61.12-.25.03-.5.06-.76.08,0,0,0-.01,0-.02,0-.05.02-.14.04-.19.79-.06,1.59-.09,2.37-.12h.07c.71-.03,1.42-.05,2.13-.07,1.33-.04,2.58-.45,3.8-.84,1.2-.39,2.45-.8,3.74-.83.19,0,.55-.15.62-.24.02-.03.03-.07.02-.11-.05-.21-.05-.37.02-.46.08-.13.28-.17.5-.21.18-.03.36-.07.5-.16.32-.22.68-.41,1.03-.59.16-.08.31-.16.46-.24.06-.03.08-.1.05-.16l-.07-.14-.07-.14s-.04-.05-.07-.06c-.01,0-.03,0-.04,0-.02,0-.04,0-.06.01-.18.09-.35.2-.52.31-.37.23-.72.45-1.08.49-1,.11-1.89.5-2.74.87-.28.12-.57.25-.86.37-1.47.59-3.06.97-4.6,1.34-.27.07-.55.13-.82.2-.18.04-.37.06-.62.06-.18,0-.37-.01-.56-.02-.15,0-.3-.02-.45-.02l.02-.06.31-.86s.01-.04.01-.06c0-.07-.05-.12-.12-.12h0s0,0,0,0h0s-.05.01-.07.03c-.16.13-.3.27-.43.4-.31.31-.58.57-.86.57-.18,0-.36-.11-.57-.32-.02-.02-.07-.04-.11-.04-.03,0-.05,0-.07.01l-1.13.17-1.46.22s-.08.04-.1.08c-.07.21-.12.36-.05.5.08.16.29.23.74.37l.88.32s.03.03.05.04c.02,0,.03.01.05.01,0,0,0,0,0,0h.04c.3.09.6.18.9.28.64.2,1.29.41,1.95.59.36.1.74.2,1.11.2.1,0,.2,0,.29-.02,1.65-.27,3.25-.58,4.77-.93.28-.06.5-.28.72-.48ZM8.06,59.82c-.05.02-.1.03-.15.05,0,0-.01,0-.02,0,0,0,0-.01,0-.02,0,0,0,0,0,0,.06,0,.11-.01.17-.02ZM10.58,58.86v-.02s.06,0,.08,0c-.03,0-.06,0-.08.02ZM10.91,57.74c-.03.1-.06.17-.09.25l.03-.2s.04-.04.06-.05Z"/>
      <path class="cls-1" d="M34.81,12.59c-.04.21.22.58.42.61.02,0,.04,0,.07,0,.21,0,.56-.16.61-.36.12-.48.21-.95.12-1.39-.3-1.4-.6-2.53-.95-3.57-.18-.53-.44-1.03-.7-1.52-.12-.22-.23-.44-.34-.66-.02-.04-.06-.07-.11-.07-.01,0-.03,0-.04,0-.06.02-.09.09-.07.15.09.33.18.66.27.98.55,1.95,1.07,3.79.73,5.81ZM34.02,5.95s-.04-.05-.06-.07c-.01-.04-.02-.08-.03-.12.03.06.06.12.1.19Z"/>
      <path class="cls-1" d="M20.94,51.36s.06,0,.09,0c1.17-.05,2.22-.6,3.41-1.8.04-.04.05-.1.02-.14-.02-.04-.06-.06-.11-.06,0,0-.01,0-.02,0l-2.81.52-2.72.5c-.05,0-.09.05-.1.1,0,.05.02.1.06.13.81.46,1.49.76,2.18.76ZM23.93,49.85c.11-.11.22-.24.34-.37.03,0,.05,0,.08-.01-.14.14-.28.25-.42.38ZM20.2,50.24l-1.32.29s-.04-.02-.06-.03c.46-.09.92-.17,1.39-.26Z"/>
      <path class="cls-1" d="M6,52.13s.05-.06.05-.11c0-.04-.02-.08-.06-.1-.15-.09-.3-.12-.44-.14-.11-.02-.22-.04-.3-.09-.16-.1-.36-.12-.55-.14-.22-.02-.42-.04-.53-.17-.06-.07-.08-.18-.08-.32l.58.07,1.08.12v.12s.01.09.05.12c.02.01.04.02.06.02.03,0,.05,0,.07-.02l.43-.32.44-.32s.06-.1.03-.16l-.2-.36-.04-.07.59.14h.05s.02.02.03.02c.04,0,.08-.02.1-.06.06-.11.11-.2.15-.28.07-.13.11-.21.17-.26.25-.23.45-.35.59-.35.04,0,.18,0,.27.3.01.03.03.06.06.07.02,0,.04.01.05.01.01,0,.03,0,.04,0,.12-.04.23-.09.35-.14.22-.09.43-.18.63-.2.6-.05.9-.16,1.05-.39.14-.21.14-.5,0-.96.07.02.14.05.21.07.26.09.52.18.76.18.09,0,.17-.01.25-.04.26-.09.4-.43.54-.77.03-.08.07-.17.1-.24.43.37.67.54.88.54.24,0,.37-.23.51-.53.02-.05,0-.11-.04-.15-.53-.41-1.16-.5-1.78-.58-.8-.11-1.56-.21-2.1-.99-.02-.03-.06-.05-.1-.05-.02,0-.03,0-.05,0l-.45.19-.22.1.27-.31.61-.71s.03-.06.03-.1c0-.04-.03-.07-.06-.08l-.08-.05-.13-.08s-.04-.02-.06-.02-.04,0-.06.02l-1.37.85-.95.59s-.05.05-.06.08c0,.03,0,.07.03.1l.06.07.06.07s.06.04.09.04c0,0,0,0,0,0l.84-.04-1.85,1.53s-.05.06-.04.1c0,.04.02.07.05.1l.21.14c0,.06-.01.13-.02.2,0,.13-.02.35-.08.38-.13.09-.27.19-.41.28-.59.42-1.21.85-1.86,1.01-.56.14-.6.41-.6.66-.14-.1-.28-.17-.43-.17-.3,0-.54.2-.78.4l-.11.09s-.05.06-.05.1c0,.04.02.07.05.1l.52.39-.68.4-.64.38s-.07.08-.06.14c.01.05.06.09.12.09.28,0,.54-.02.79-.04.22-.02.42-.03.61-.03.27,0,.48.03.65.1.23.09.45.14.66.14.54,0,.95-.29,1.39-.61l.06-.04ZM10.55,48.01s.02,0,.04.01c.02.07.04.13.06.2-.03-.07-.06-.13-.1-.21ZM12.54,47.19s-.01.02-.02.03c0-.01,0-.03,0-.05,0,0,0,0,.01.01ZM6.45,50.2l-.1-.09h.06s.03.06.04.09ZM3.29,51.56h-.02s-.11-.07-.17-.11l.19.11ZM9.16,46.04l-.11.07.03-.03s.05-.02.08-.03ZM8.24,46.19c.17-.03.34-.05.46-.07l-.06.05c-.13,0-.27.01-.4.02ZM7.01,47.67l-.29.26s0,0-.01,0c.1-.08.2-.16.3-.25ZM2.15,52.3l-.23.18s-.05,0-.08,0c.11-.06.21-.12.31-.18Z"/>
      <path class="cls-1" d="M14.93,53.21s-.03,0-.04,0c-.03,0-.05,0-.07.02-.03.02-.05.06-.05.1v1.4c0,.05.03.1.08.11.01,0,.03,0,.04,0,.03,0,.07-.01.09-.04l.37-.42.28-.32c.2.12.37.17.52.17.51,0,.64-.63.68-.84.04-.21.36-.47.62-.56.3-.11.62-.14.95-.18.14-.02.29-.03.43-.05.07-.01.11-.07.1-.14l-.03-.19-.03-.19c0-.06-.06-.1-.12-.1,0,0,0,0-.01,0l-2.08.25-1.05.13c-.06,0-.1.05-.11.11,0,.06.03.11.08.13l.35.14-.53.64-.47-.16ZM16.08,52.65s-.06-.02-.11-.04l.12.02v.02ZM14.98,53.36l-.09-.02h0s.06,0,.09.02ZM16.27,52.4l-.56.11s-.06-.02-.09-.03c.23-.03.44-.05.65-.08Z"/>
      <path class="cls-1" d="M4.65,12.41s.05,0,.07-.02c.39-.29.65-.42.84-.42.14,0,.28.07.43.55,0,0,0,0,0,0,0,.01-.01.03-.01.04-.03.03-.06.06-.09.09-.13.14-.27.29-.27.46.01.53.09,1.03.23,1.47.07.21.07.46.07.72,0,.56,0,1.2.78,1.52.02,0,.03,0,.05,0,.03,0,.07-.01.09-.04l.69-.76s.04-.08.02-.13c-.02-.04-.06-.07-.1-.08l-.34-.04-.42-.05-.16-1.19-.12-.89.38.06.6.1.02.02s.01,0,.02,0c0,0,0,0,0,0h.03s.01.02.01.02c.68.63,1.44,1.21,2.43,1.21.31,0,.63-.06.96-.16.04-.01.07-.05.08-.09,0-.04,0-.09-.04-.12-.25-.2-.48-.39-.72-.57-.58-.47-1.13-.92-1.71-1.33-.2-.14-.44-.21-.68-.27-.07-.02-.13-.03-.2-.05h0s-.02-.02-.02-.02c0,0,0,0,0,0h0s-.03-.01-.04-.02c-.01,0-.02-.01-.04-.01h0s0,0,0,0l-.74-.65-.16-.15.81-.24c.06-.02.09-.07.09-.13v-.1s-.03-.1-.03-.1c0-.06-.05-.1-.11-.11l-1.95-.23v-1.02c0-.06-.05-.12-.11-.12h-.15s-.14-.03-.14-.03c0,0,0,0-.01,0-.06,0-.11.05-.12.11l-.33,2.62s.02.1.06.12c.02.01.04.02.06.02ZM7.58,13.8s0,0,0-.01c.11.04.22.09.33.13l-.28-.07s-.04-.03-.06-.05ZM9.76,14.58c-.35-.32-.68-.61-.98-.89l1.13.95-.15-.06ZM7.4,12.67s.02,0,.03,0c0,0,0,0,0,0,.02,0,.04.01.06.02l1.81,1.64-1.61-.64-.08-.03-.03-.03s-.03-.02-.05-.02c0,0,0,0,0-.01h-.04c-.07-.05-.14-.1-.21-.14-.21-.13-.43-.27-.62-.43-.12-.1-.21-.23-.31-.37h1.06ZM6.29,13.64l-.03-.06h.02s0,.04,0,.06ZM7.35,13.66s.03.02.04.03c0,0,0,.02,0,.02-.15-.03-.31-.05-.49-.08l.45.03ZM7.37,12.54c-.16,0-.31,0-.47,0,.21-.02.4-.03.48-.04,0,.01,0,.02-.01.04ZM7.21,16.22l.19-.26s.02,0,.04,0c-.08.09-.15.17-.23.25ZM10.66,14.85s.1-.04.15-.06c0,0,.02.01.03.02-.06.02-.11.03-.17.04ZM6.75,11.93l-.39-.3h.04c.13.1.24.2.35.3ZM4.73,11.67l-.04.6s-.03.01-.04.03c.03-.22.05-.41.08-.62Z"/>
      <path class="cls-1" d="M2.17,53.84c-.65,0-1.28.32-1.91.99-.04.04-.04.11-.01.15l.5.71s.06.05.1.05c.02,0,.03,0,.04,0l1.19-.47,1.6-.63s.07-.05.08-.1c0-.04-.01-.09-.05-.11-.54-.39-1.05-.57-1.55-.57ZM2.7,54.89l.92-.4s.02.01.03.02c-.32.13-.63.25-.95.38Z"/>
      <path class="cls-1" d="M30.85,54.12l-1.97.32-1.4.23c-.05,0-.09.05-.1.11,0,.05.02.11.07.13.92.4,1.63.59,2.15.59.76,0,1.2-.39,1.38-1.23,0-.04,0-.08-.03-.11-.02-.02-.06-.04-.09-.04,0,0-.01,0-.02,0ZM30.84,54.24s.02,0,.03,0c-.02.1-.06.19-.09.28.02-.09.05-.17.07-.27ZM27.54,54.78l-.02.02s-.01,0-.02,0c.01,0,.03,0,.04,0Z"/>
      <path class="cls-1" d="M19.65,18.46s.05-.06.05-.1c0-.04-.02-.08-.06-.1l-2.11-1.3-1.28-.79s-.04-.02-.06-.02c-.03,0-.06.01-.08.03-.04.04-.05.1-.02.15.88,1.65,1.77,2.48,2.64,2.48.32,0,.64-.12.94-.36ZM19.52,18.39s.03-.03.04-.04h.01s-.04.03-.06.04ZM16.73,16.61l-.49-.25s-.03-.05-.05-.08c.17.11.36.22.54.33Z"/>
      <path class="cls-1" d="M26.88,49.39l.1.24s.08.09.13.09c.01,0,.02,0,.03,0l1.21-.47,1.38-.53s.06-.04.07-.07c.01-.03.01-.06,0-.1l-.13-.32s-.04-.07-.08-.08c-.02,0-.03,0-.05,0-.02,0-.04,0-.06.01l-.71.45-.35-.69-.04-.09s-.06-.07-.11-.07c-.01,0-.03,0-.04,0l-1.61.63c-.06.02-.09.09-.07.15l.06.19c.02.05.06.09.12.09h.65l-.47.41s-.05.09-.03.14ZM28.78,48.76s.03-.02.05-.03l-.05.04h0ZM29.16,48.81l.53-.22s0,0,0,.01c-.18.07-.36.14-.53.21ZM27.26,48.72l.4-.05-.05.05h-.35Z"/>
      <path class="cls-1" d="M45.05,50.68s-.01,0-.02,0c-.03,0-.06.01-.08.03l-2.77,2.43-.97.85s-.04.05-.04.09c0,.03.01.07.03.09l.19.2s.06.04.09.04.06-.01.08-.03c.26-.25.52-.5.79-.75.59-.56,1.19-1.13,1.78-1.71.32-.32.57-.53.71-.53s.3.3.49.79c.06.15.17.26.27.36.04.04.09.09.13.13.02.03.06.04.09.04h0s.07-.01.09-.04l.06-.07.12-.13s.04-.1.01-.15l-.98-1.59s-.05-.05-.09-.06ZM45.05,50.83l-.02-.02s0,0,0,0c0,0,0,.02.01.02ZM41.37,54.01l-.08.07s0,0,0,0c.03-.02.05-.05.08-.07Z"/>
      <path class="cls-1" d="M26.06,9.57l-.22-.55s-.04-.06-.07-.07c-.01,0-.03,0-.04,0-.02,0-.04,0-.06.02l-.32.18s-.05.04-.06.08c0,.03,0,.07.02.1l1.56,2.46s.06.06.1.06c.01,0,.02,0,.04,0,.05-.02.09-.07.09-.12,0-.24-.01-.48-.01-.72-.01-1.2-.02-2.33-.84-3.28-.02-.03-.06-.04-.09-.04-.02,0-.03,0-.05.01-.05.02-.08.07-.07.13l.3,2.22h-.07s-.19-.46-.19-.46ZM25.75,9.13l-.03-.07h0s.02.04.03.07ZM26.5,8.34c-.1-.16-.21-.31-.35-.46,0-.03,0-.06-.01-.09.15.18.27.36.37.55Z"/>
      <path class="cls-1" d="M26.13,19.76s0,0,0,0c0,0,0,0-.01,0,0,0-.01,0-.02,0-.14.03-.28.05-.41.05-.71,0-1.04-.52-1.39-1.08-.08-.12-.15-.24-.23-.36l-.51-.74-.21-.31s-.05-.05-.09-.05c0,0,0,0-.01,0-.03,0-.06.01-.08.03l-.12.11-.12.11s-.05.1-.03.15c.92,1.77,1.49,2.61,2.3,2.61.27,0,.57-.09.97-.3.04-.02.07-.06.07-.11,0-.07-.05-.12-.12-.12h0ZM25.93,19.96s.06-.05.09-.07c.04,0,.07,0,.11-.01-.07.04-.13.06-.2.09Z"/>
      <path class="cls-1" d="M10.01,1.53l.22.11c.57.28,1.12.54,1.42,1.11.02.05.04.09.07.14.02.04.06.07.11.07.02,0,.03,0,.05-.01,0,0,0-.01.01-.02,0,.02,0,.05.02.06.3.19.59.41.87.63.82.62,1.66,1.25,2.8,1.38.25.03.56.38.69.53.41.47.89.71,1.46.71.15,0,.31-.02.48-.05.04,0,.08-.01.13-.01.19,0,.4.06.6.13.06.02.12.04.18.05.32.09.64.2.95.3.14.05.27.09.41.14.01,0,.03,0,.04,0,.03,0,.05,0,.07-.02.02-.02.03-.04.03-.07l.53.64.19.22c-.39.05-.74.18-1.08.3-.4.15-.78.28-1.18.28-.27,0-.53-.06-.78-.2-.74-.38-1.54-.68-2.3-.97-.34-.13-.69-.26-1.03-.4-.01,0-.03,0-.05,0-.02,0-.03,0-.05.01-.03.01-.05.04-.06.07l-.06.15-.05.15c-.02.06,0,.13.07.16.52.2,1.03.47,1.52.73,1.07.56,2.18,1.15,3.51,1.15h.09s0,0,0,0c.21,0,.52.17.55.25.14.7.67.76,1.09.8.08,0,.16.02.23.03.34.05.68.08,1.11.12.21.02.45.04.71.06,0,0,0,0,.01,0,.04,0,.08-.02.11-.06.02-.04.02-.09,0-.13l-1.64-2.39,1.51.8s.04.01.06.01c.03,0,.05,0,.08-.03.04-.03.05-.08.04-.13-.23-.87-.78-1.46-1.65-1.76-.42-.14-.8-.45-1.16-.75l-.06-.05c-.37-.3-.73-.63-1.08-.95-.12-.11-.24-.22-.36-.33l-.02-.03-.02-.03s0,0,0,0l.13-.46s.01-.03.01-.05c0-.07-.05-.12-.12-.12h0s-.01,0-.02,0c-.13.02-.27.06-.39.1-.15.04-.3.08-.39.08-.04,0-.06,0-.06,0-.22-.19-.33-.39-.33-.59,0-.22.15-.46.45-.69.03-.02.05-.06.05-.1,0-.07-.05-.12-.12-.12h0s0,0,0,0c0,0-.01,0-.02,0-.01,0-.02,0-.03,0l-.66.29-.18-1.14s-.04-.08-.08-.1c-.01,0-.02,0-.04,0-.03,0-.07.01-.09.04l-.15.16s-.09-.02-.14-.04c-.13-.03-.27-.07-.33-.13-.2-.26-.38-.55-.54-.83-.07-.12-.14-.24-.21-.35-.02-.04-.06-.06-.1-.06,0,0-.02,0-.03,0-.05.01-.09.06-.09.11-.08.98,0,1.09.39,1.53.06.07.14.15.22.24.51.58.93,1.26,1.34,1.92.13.21.26.42.4.63l-.11-.02c-.28-.57-.64-.81-1.24-.81-.05,0-.1,0-.15,0-.02,0-.03,0-.05,0-.5,0-1.08-.43-1.31-.62-.69-.56-1.35-1.17-2.04-1.81-.29-.27-.58-.54-.88-.81-.02-.02-.05-.03-.08-.03-.01,0-.03,0-.04,0-.04.02-.07.05-.08.1l-.09.78L9.13.01s-.04-.01-.05-.01-.04,0-.06.01c-.03.02-.06.05-.06.09-.1.63.15.98,1.05,1.43ZM20.98,9.1c.07.06.14.11.21.17l-.23-.16s.01,0,.02-.01ZM22.12,9.09s.07.09.11.14l-.25.19-.23.17-.61-.51s.08-.05.12-.08c.18-.12.36-.24.51-.24.11,0,.24.18.35.33ZM22.36,9.2s0,0,0,0c0,0,0,0,0,0h0ZM21.76,8.64h0s0,0,0,0h0ZM11.97,2.89c.05.02.11.03.16.05h-.08s-.05-.03-.07-.05ZM11.94,2.79c-.02-.05-.04-.1-.07-.15-.12-.27-.15-.46-.08-.58.06-.11.2-.19.43-.23,0,0,.02,0,.03,0,.01,0,.01.02.03.02,0,0,0,0,0,0,0,0,0,0,.01,0,.1.05.21.11.31.16.29.15.57.28.81.47.61.48,1.2,1,1.78,1.49.21.19.43.37.64.56h0s-.02.05-.02.05c-.23-.12-.46-.24-.69-.36-.66-.35-1.35-.72-2.03-1.06-.24-.12-.49-.2-.74-.28-.11-.03-.22-.07-.33-.11-.01,0-.03,0-.04,0-.01,0-.02.02-.04.02ZM12.14,1.73s-.05.02-.08.03c.03-.02.05-.03.08-.05,0,0,0,.01,0,.02h0ZM18.04,5.53h0v-.03.03ZM16.87,5.18c.35-.05.69-.11,1.04-.16v.21s0,.24,0,.24l-1.03-.06v-.22ZM18.71,4.91l.13-.07.39-.19h.01s.64,1.1.64,1.1l-1.17-.84ZM21.15,7.16l.43.46s-.03,0-.04,0c-.14-.17-.26-.32-.39-.46ZM23.5,8.31l.11.03s0,.02.01.03c-.04-.02-.08-.04-.12-.06ZM19.53,4.75l-.13-.08s-.02-.03-.02-.04c0,0,0,0,0,0,0,0,0,0,0-.01.05.04.1.09.15.13ZM18.6,2.6c-.08.06-.12.13-.18.19.03-.05.06-.1.1-.15.03-.01.05-.02.08-.04ZM17.93,2.89l-.08.05v-.02s.05-.02.08-.04ZM17.64,1.96l-.07-.27.03-.03c.02.1.03.2.05.3ZM16.11.59l-.09-.09s0-.03,0-.05c.03.05.06.09.08.14ZM12.69,1.06l-.31-.24s0-.02,0-.04c.11.1.2.18.3.28ZM9.78.48l-.7-.33s0-.01,0-.02c.23.12.47.24.7.35Z"/>
      <path class="cls-1" d="M35.28,48.65l.15-.22s.02-.06.02-.09c0-.03-.03-.06-.05-.08l-1.86-1.18-.67-.42s-.04-.02-.06-.02c-.03,0-.06.01-.09.04l-.33.35-.21.22s-.04.08-.03.12c.01.04.05.07.09.08l.77.14.41.08-.04.09-.11.23s-.01.08,0,.12c.02.03.06.05.1.05,0,0,0,0,0,0l.72-.04-.03.02-.38.34s-.05.09-.03.13c.02.05.06.08.11.08h1.41s.08-.02.1-.06ZM33.52,47.57s-.07-.01-.1-.02h.11s0,.02,0,.02ZM32.42,47.15l-.14.19s-.02,0-.03,0c.07-.07.11-.12.17-.18ZM33.38,48.01v.03s0,0-.01,0c0,0,0-.02.01-.03ZM33.94,48.01l.45-.07-.04.05c-.15,0-.29.02-.41.02ZM34.04,48.34l-.21.24h-.05c.1-.09.18-.17.27-.24Z"/>
      <path class="cls-1" d="M42.4,44.41s-.04,0-.06.01c-.04.02-.07.07-.06.12l.1.8.04.29-.34-.28s-.05-.03-.08-.03c-.01,0-.02,0-.03,0-.04,0-.07.04-.08.07-.15.38-.11.82.11,1.26.41.83,1.37,1.54,2.5,1.86.01,0,.02,0,.03,0,.04,0,.08-.02.11-.06.03-.05.02-.11-.02-.15-.17-.17-.34-.31-.5-.46-.33-.3-.62-.56-.86-.85-.18-.22-.29-.49-.42-.77-.04-.09-.08-.18-.12-.27l.06-.02c.18-.07.36-.15.54-.2.38-.1.64-.28.76-.53.14-.28.11-.65-.09-1.09-.02-.04-.06-.07-.11-.07,0,0,0,0,0,0-.05,0-.09.03-.11.07-.18.34-.38.65-.66.65-.17,0-.39-.11-.63-.33-.02-.02-.05-.03-.08-.03ZM42.09,45.53l-.1-.07s0,0,0-.01c.04.03.07.05.1.08ZM43.92,44.31s-.04-.07-.06-.1c0-.01.01-.02.02-.03.02.05.02.09.04.14Z"/>
      <path class="cls-1" d="M23.32,14.19c-.31,0-.63.05-.96.14-.06.02-.1.08-.09.14.01.06.06.1.12.1,0,0,.01,0,.02,0,.13-.02.26-.03.39-.03,1.2,0,2.06.73,2.97,1.5.02.02.06.03.09.03.03,0,.05,0,.07-.02.05-.04.07-.1.04-.15-.63-1.12-1.55-1.71-2.65-1.71ZM22.6,14.42s-.03.01-.04.02c-.06,0-.11,0-.17.01.07-.02.14-.01.21-.03Z"/>
      <path class="cls-1" d="M25.42,38.01l-.09.45c-.01.06.02.12.08.14l1.1.35s.02,0,.04,0c.02,0,.05,0,.07-.02.03-.02.05-.05.06-.09l.09-.8s0-.07-.03-.1c-.02-.03-.06-.04-.09-.04h-1.11c-.06,0-.11.04-.12.1Z"/>
      <path class="cls-1" d="M35.56,37.96c-.03.05,0,.12.04.15l.15.11s.05.02.07.02c.04,0,.07-.01.09-.04l.72-.89,1.16.38s.03,0,.04,0c.05,0,.09-.03.11-.08l.08-.18c.02-.05,0-.11-.04-.15l-.61-.43-.83-.58h0c.35,0,.58-.08.71-.24.15-.18.18-.44.1-.86-.14-.75-.13-1.32.03-1.75.33-.89.04-1.57-.29-2.35-.09-.21-.19-.44-.27-.67-.02-.05-.06-.08-.11-.08,0,0-.01,0-.02,0-.06,0-.1.06-.1.12-.02,1.5-.02,1.58-.64,2.22-.08-.12-.15-.24-.23-.37-.25-.4-.5-.82-.88-1.04-.37-.22-.85-.23-1.32-.25-.2,0-.41-.01-.6-.03,0,0,0,0-.01,0-.03,0-.06.01-.09.03-.03.03-.04.06-.04.1.07.77.42,1.16,1.03,1.16.15,0,.31-.02.49-.07.1-.03.19-.04.27-.04.14,0,.17.05.18.06.03.04.08.17-.02.5-.26.9-.79,1.43-1.74,1.74-.77.25-1.49.7-2.1,1.1-.56.37-1.09.78-1.6,1.18-.2.16-.4.31-.59.46-.05,0-.09.04-.1.08-.02.07-.03.08.15.21l-2.13,2.81s-.03.1,0,.14c.02.03.06.05.1.05.01,0,.03,0,.04,0l.6-.2.82-.28-.19.37s-.02.06,0,.1c.01.03.03.06.06.07l.17.08.17.08s.03.01.05.01.04,0,.05-.01c.03-.02.06-.04.07-.08.03-.11.06-.21.1-.32.08-.24.16-.49.17-.74.05-1.35.68-2.24,1.64-2.33,2.35-.21,3.75-1.76,4.86-3.25.04.24-.04.51-.12.79-.16.55-.34,1.17.38,1.63.02.01.04.02.07.02,0,0,.02,0,.02,0,.1-.02.2-.05.29-.07.16-.04.3-.07.44-.08-.01.01-.03.01-.04.03l-.79,1.64ZM36.46,36.37s0,0,0,0c.02.01.04.03.05.04l-.06-.03ZM35.74,34.83l.58-.47.46-.37c.05.34.02.6-.1.76-.11.16-.3.25-.58.29h0c-.07,0-.19-.09-.29-.17-.02-.02-.04-.03-.06-.05ZM35.99,32.81s.07-.07.1-.11c-.03.04-.06.07-.1.12,0,0,0,0,0,0ZM28.86,37.45h0s0,0,0,0h0ZM35.3,33.77s0,.02,0,.03c-.11.16-.23.31-.35.46.12-.16.23-.33.34-.49ZM36.79,30.63s-.04-.07-.07-.1c0-.03,0-.05,0-.08.02.06.05.12.07.18ZM32.92,31.1s0,0,0,0c0,0,0,0,0,0,0,0,0,0,0,0ZM27.69,39.1l-.9,1.27s-.05.02-.08.03c.34-.45.66-.87.98-1.29ZM27.67,40.06l.68-.28-.02.05c-.22.07-.44.15-.66.22Z"/>
      <path class="cls-1" d="M6.42,55.64s.05,0,.07-.02l.23-.15.49-.31s.06-.08.05-.12c0-.05-.05-.09-.09-.1l-1.21-.27-1.01-.23s-.02,0-.03,0c-.05,0-.1.03-.11.08l-.11.29c-.02.06,0,.13.07.15l1.6.66s.03,0,.05,0ZM7.12,55.08v-.02s.02,0,.03,0c-.01,0-.02.01-.03.02Z"/>
      <path class="cls-1" d="M47.77,48.18c.01-.06-.01-.11-.07-.14-.02,0-.03-.01-.05-.01-.04,0-.08.02-.1.05-.64.88-.03,1.49.56,2.07.02.02.05.04.09.04,0,0,0,0,.01,0,.04,0,.07-.02.09-.05.41-.62.05-1.02-.23-1.33-.19-.21-.35-.39-.3-.62ZM47.65,48.24s-.02-.04-.02-.06c0-.01.01-.02.02-.04,0,.03,0,.06,0,.09Z"/>
      <path class="cls-1" d="M47.13,18.65l-1.14,2.19c-.03.05-.02.12.02.17s.1.07.16.05c.13-.04.29-.07.44-.1.4-.07.82-.15,1-.43,0,0,.02-.04.03-.04.13-.26.05-.62-.06-1.07-.05-.22-.11-.46-.15-.72-.01-.07-.06-.12-.13-.13s-.13.02-.16.08ZM47.24,18.77l.03-.05c0,.06.02.11.03.17-.02-.04-.04-.08-.06-.12ZM46.57,20.03l-.39.86s-.04,0-.06.01l.46-.87Z"/>
      <path class="cls-1" d="M40.99,52.56c0-.06-.06-.1-.11-.1,0,0,0,0,0,0-.05,0-.1.04-.12.09-.18.63-.3.76-.45.76-.18,0-.46-.17-.74-.34-.02-.01-.04-.02-.07-.02-.02,0-.04,0-.05.01-.04.02-.06.06-.07.1-.02.36.04.62.2.79.13.14.31.21.55.21.07,0,.14,0,.22-.02.29-.04.5-.15.61-.31.19-.26.12-.61.06-.97-.01-.06-.02-.13-.03-.19ZM40.88,52.65l-.03-.03s0-.03.01-.04c0,.03,0,.05.01.08ZM39.63,53.14s-.09-.04-.14-.06c0,0,0-.01,0-.02.05.04.09.05.14.08Z"/>
      <path class="cls-1" d="M27.31,18.51v-.27s0-.06-.03-.09-.05-.04-.09-.04h-2.48c-.07,0-.12.05-.12.12v.14s0,.13,0,.13c0,.03.01.06.04.09.02.02.05.04.09.04h2.48c.07,0,.12-.05.12-.12Z"/>
      <path class="cls-1" d="M29.49,17.41s-.02.06-.01.09l.09.29.02.07c.02.05.06.09.12.09.01,0,.02,0,.03,0l2.01-.59.35-.1s.06-.03.07-.06.02-.06,0-.09l-.08-.27c-.02-.05-.06-.09-.12-.09-.01,0-.02,0-.03,0l-1.29.33-1.1.28s-.06.03-.08.06ZM29.62,17.46h-.02s0,0,0,0c0,0,.01,0,.02,0Z"/>
      <path class="cls-1" d="M33.04,52.43c.12.03.25.05.37.08.34.08.7.16,1.05.17h0c.16,0,.24-.18.37-.42.05-.09.09-.19.14-.27.02-.04.02-.09,0-.13-.02-.04-.06-.06-.1-.06,0,0,0,0,0,0l-1.67.09h-.06c-.05,0-.1.04-.11.1l-.03.14-.04.14s0,.07.02.09c.02.03.05.05.08.05ZM34.86,51.95s0-.02,0-.03c0,0,0,0,.01,0,0,0,0,.02-.01.03Z"/>
      <path class="cls-1" d="M26.3,6.49l1.62.34s.02,0,.03,0c.05,0,.1-.03.11-.08.02-.06,0-.12-.05-.15-.7-.4-1.39-.75-2.22-.75-.27,0-.55.04-.83.12-.05.02-.09.07-.09.12,0,.06.04.1.1.12l1.33.28ZM25.15,6.07s-.06.02-.08.04c-.03,0-.05-.01-.08-.02.06-.02.11-.01.16-.02Z"/>
    </g>
  </g>
</svg>